<?xml version="1.0" encoding="utf-8"?>
<!-- Generator: Adobe Illustrator 26.2.1, SVG Export Plug-In . SVG Version: 6.00 Build 0)  -->
<svg version="1.1" id="レイヤー_3" xmlns="http://www.w3.org/2000/svg" xmlns:xlink="http://www.w3.org/1999/xlink" x="0px"
	 y="0px" viewBox="0 0 298.686 242.802" style="enable-background:new 0 0 298.686 242.802;" xml:space="preserve">
<style type="text/css">
	.st0{fill:none;stroke:#000000;}
</style>
<path class="st0" d="M9.289,73.401L0.588,34.1c18.9-5.7,47.101-16.8,63-29.4h39v232.203H50.989V60.801
	C39.889,65.9,24.889,70.101,9.289,73.401z"/>
<path class="st0" d="M298.186,122.301c0,60-21.899,120.001-86.4,120.001c-64.801,0-86.401-60-86.401-120.301
	c0-61.5,21.6-121.501,86.401-121.501c64.501,0,86.4,60,86.4,121.501V122.301z"/>
<path class="st0" d="M178.185,122.301c0,61.201,15.9,75.901,33.601,75.901c17.4,0,33.601-14.7,33.601-76.201
	c0-62.701-16.201-78.9-33.601-78.9c-17.7,0-33.601,16.2-33.601,78.9V122.301z"/>
</svg>
